<?xml version="1.0" encoding="UTF-8"?>
<svg width="250px" height="250px" viewBox="0 0 250 250" version="1.1" xmlns="http://www.w3.org/2000/svg" xmlns:xlink="http://www.w3.org/1999/xlink">
    <!-- Generator: Sketch 47.1 (45422) - http://www.bohemiancoding.com/sketch -->
    <title>chef</title>
    <desc>Created with Sketch.</desc>
    <defs></defs>
    <g id="icons---for-export" stroke="none" stroke-width="1" fill="none" fill-rule="evenodd">
        <g id="chef" fill-rule="nonzero" fill="#C6C6C6">
            <g id="Group-3" transform="translate(8.000000, 43.000000)">
                <path d="M173.716683,165 L168.302998,165 C163.927975,165 160.380123,161.459632 160.380123,157.092675 C160.380123,152.725718 163.927975,149.18535 168.302998,149.18535 L173.716683,149.18535 C178.759604,149.18535 182.863081,145.090969 182.863081,140.057424 L182.863081,88.7624846 C182.863081,84.796835 185.805698,81.4456553 189.744159,80.9239553 C206.622826,78.6891405 218.823593,64.1649294 218.126451,47.13906 C217.437142,30.3028996 203.684386,16.558372 186.816685,15.8459206 C175.051436,15.3508007 164.234509,20.9440917 157.847435,30.8084431 C156.387876,33.0630626 153.881821,34.4243817 151.192994,34.4243817 C148.503645,34.4243817 145.997067,33.0625415 144.538552,30.8084431 C138.460624,21.4204492 128.166423,15.8156922 116.999619,15.8156922 C105.832816,15.8156922 95.5380922,21.4204492 89.4606858,30.8084431 C88.0011265,33.0630626 85.495071,34.4243817 82.8062443,34.4243817 C80.1174175,34.4243817 77.6103176,33.0625415 76.1518027,30.8074007 C69.7657739,20.942007 58.9410138,15.3403771 47.1825535,15.8453994 C30.3158968,16.5573297 16.5631406,30.3028996 15.8738318,47.1380176 C15.1766899,64.1644082 27.3779789,78.6880982 44.2561241,80.9239553 C48.1945842,81.4456553 51.137202,84.796835 51.137202,88.7624846 L51.137202,140.056382 C51.137202,145.089406 55.2396341,149.184308 60.2830773,149.184308 L129.297516,149.184308 C133.672538,149.184308 137.22039,152.724675 137.22039,157.091633 C137.22039,161.45859 133.672538,164.998958 129.297516,164.998958 L60.2830773,164.998958 C46.5026443,164.998958 35.2914535,153.80977 35.2914535,140.056382 L35.2914535,95.178717 C26.0959688,92.5707382 17.8336622,87.2891121 11.5452855,79.902966 C3.62554443,70.5988818 -0.459654972,58.733725 0.0411383583,46.4933194 C1.06309096,21.5038378 21.4760329,1.10177201 46.512044,0.044300199 C60.108139,-0.527954136 73.270805,4.68852459 82.7879671,14.0462902 C91.7928474,5.11693357 103.996225,0 116.999619,0 C130.003013,0 142.206391,5.11797593 151.211793,14.0468113 C160.728433,4.68748223 173.895277,-0.524305885 187.487194,0.044300199 C212.523205,1.10177201 232.935625,21.5038378 233.958622,46.4922771 C234.460982,58.7321615 230.37526,70.5978395 222.454997,79.9019236 C216.16662,87.2891121 207.904836,92.5707382 198.708829,95.1776746 L198.708829,140.05534 C198.709351,153.810812 187.498161,165 173.716683,165 Z" id="Shape"></path>
                <path d="M92.5,130 C88.3575007,130 85,126.465334 85,122.105409 L85,92.8945908 C85,88.5341458 88.357995,85 92.5,85 C96.642005,85 100,88.5346662 100,92.8945908 L100,122.105409 C100,126.465854 96.642005,130 92.5,130 Z" id="Shape"></path>
                <path d="M141.5,130 C137.358489,130 134,126.465334 134,122.105409 L134,92.8945908 C134,88.5341458 137.358489,85 141.5,85 C145.641511,85 149,88.5346662 149,92.8945908 L149,122.105409 C149.000494,126.465854 145.642499,130 141.5,130 Z" id="Shape"></path>
            </g>
        </g>
    </g>
</svg>