<?xml version="1.0" encoding="UTF-8"?>
<svg width="250px" height="250px" viewBox="0 0 250 250" version="1.1" xmlns="http://www.w3.org/2000/svg" xmlns:xlink="http://www.w3.org/1999/xlink">
    <!-- Generator: Sketch 46 (44423) - http://www.bohemiancoding.com/sketch -->
    <title>cutlery</title>
    <desc>Created with Sketch.</desc>
    <defs></defs>
    <g id="icons---for-export" stroke="none" stroke-width="1" fill="none" fill-rule="evenodd">
        <g id="cutlery" fill-rule="nonzero">
            <g id="cutlery-1" transform="translate(10.000000, 21.000000)">
                <g id="Group" transform="translate(21.547425, 0.000000)" fill="#FFFFFF">
                    <path d="M137.590436,76.6256429 C136.084257,76.6256429 134.577628,76.0479524 133.42865,74.892119 C131.130242,72.5809048 131.130242,68.833381 133.42865,66.5217143 L172.292385,27.4414286 C174.590793,25.1302143 178.317551,25.1302143 180.616408,27.4414286 C182.914816,29.7526429 182.914816,33.5001667 180.616408,35.8118333 L141.752673,74.892119 C140.603244,76.0479524 139.096615,76.6256429 137.590436,76.6256429 Z" id="Shape"></path>
                    <path d="M101.275688,95.6713333 C99.6520919,95.6713333 98.0356938,94.9995476 96.8727689,93.6826667 C94.7147222,91.2384524 94.9351606,87.4981667 97.3658311,85.3276429 L103.389197,79.9497381 C97.8467466,64.6434286 101.503324,47.3371429 113.11008,35.6657143 L146.789914,1.7977619 C149.088322,-0.512547619 152.81508,-0.512547619 155.113937,1.7977619 C157.412345,4.10897619 157.412345,7.8565 155.113937,10.1681667 L121.434103,44.0356667 C112.310203,53.2104048 110.022143,67.2387381 115.740494,78.9436429 C116.907468,81.3326667 116.345575,84.211619 114.366129,85.978619 L105.181046,94.1789286 C104.060859,95.1791429 102.665799,95.6713333 101.275688,95.6713333 Z" id="Shape"></path>
                    <path d="M119.62021,112.047524 C118.230098,112.047524 116.835038,111.555786 115.713952,110.555119 C113.283731,108.385048 113.063293,104.643857 115.221339,102.199643 L122.406731,94.0626667 C124.164839,92.0730952 127.027389,91.507619 129.402275,92.6806429 C141.041421,98.4290476 154.992021,96.1286905 164.115021,86.9539524 L197.794856,53.0864524 C200.093263,50.7752381 203.820021,50.7752381 206.118879,53.0864524 C208.417286,55.3976667 208.417286,59.1451905 206.118879,61.4568571 L172.439044,95.3243571 C160.834088,106.995333 143.624149,110.672738 128.402655,105.100762 L124.024029,110.059762 C122.860204,111.375738 121.243356,112.047524 119.62021,112.047524 Z" id="Shape"></path>
                    <path d="M25.3202716,208.936214 C24.7912195,208.936214 24.2603679,208.919476 23.7286166,208.886 C16.5081351,208.429548 9.81175709,204.857548 5.3571024,199.084714 C2.5615839,195.462048 0.809323751,191.143167 0.290168882,186.593571 C-0.601931728,178.776881 2.04287891,171.116714 7.54619044,165.579571 C8.02800574,165.097333 8.50262306,164.657619 9.00423284,164.227857 L43.444355,133.475 C45.8745756,131.304929 49.5945857,131.526143 51.7530823,133.97081 C53.911129,136.414571 53.6906906,140.15531 51.2600201,142.325833 L16.7722113,173.121214 C16.7380208,173.151524 16.7038304,173.181381 16.6691901,173.211238 C16.3889184,173.449643 16.1248422,173.693476 15.8612159,173.957667 C12.87765,176.959214 11.496986,180.971833 11.9846497,185.244571 C12.2581732,187.640833 13.181765,189.917667 14.6564527,191.828071 C17.0758764,194.963524 20.5601523,196.825976 24.4664103,197.072976 C28.3569227,197.319976 32.169157,195.87281 34.9214876,193.105143 C35.1711678,192.855429 35.4118505,192.592595 35.6682788,192.290405 C35.6934718,192.260095 35.7195645,192.23069 35.7452073,192.200833 L65.0527143,159.011452 C67.210761,156.56769 70.9312209,156.346024 73.3614416,158.515643 C75.7921121,160.685714 76.0130003,164.426905 73.8545037,166.870667 L44.5834366,200.018429 C44.1304132,200.550429 43.687737,201.031762 43.2329141,201.486857 C38.4804427,206.26581 32.0220481,208.936214 25.3202716,208.936214 Z" id="Shape"></path>
                </g>
                <path d="M180.299345,169.411374 L88.0590547,87.261467 C95.2491825,73.3666742 92.7324127,56.4098499 81.5352631,45.1745702 C66.8371471,30.4264022 49.1783373,21.6206897 34.2974291,21.6206897 C26.2811345,21.6206897 19.4750504,24.1988859 14.6175495,29.0711212 C7.55843785,36.1542715 5.43561677,47.0841612 8.63673191,59.8472943 C11.7225889,72.1405966 19.5452859,85.0582318 30.666347,96.2167122 C37.4557727,103.029258 46.4846282,106.781579 56.0879736,106.781579 C61.8657388,106.781579 67.5241938,105.398741 72.6081589,102.760912 L154.481518,195.318023 C154.813786,195.711506 155.143352,196.069752 155.481473,196.410831 C158.94327,199.881705 163.54144,201.793103 168.434508,201.793103 C173.327577,201.793103 177.927998,199.881705 181.387544,196.410831 C188.529948,189.244105 188.529948,177.58417 181.387544,170.417444 C181.048073,170.075462 180.691043,169.747032 180.299345,169.411374 L180.299345,169.411374 Z" id="Shape" fill="#FFA1A1" opacity="0.533876812"></path>
                <path d="M163.128396,209 C156.819619,209 150.8874,206.440083 146.423627,201.791391 C145.976327,201.323454 145.569011,200.862385 145.169165,200.373386 L68.1008529,109.894442 C63.4551713,111.741923 58.4781888,112.704811 53.4849489,112.704811 C42.577066,112.704811 32.3229969,108.278641 24.6103657,100.243129 C13.0350478,88.1811624 4.86369236,74.1055102 1.60121378,60.6095138 C-2.03694415,45.547165 0.571720538,32.4463051 8.94695343,23.7194191 C14.7917332,17.6312028 22.8391804,14.4137931 32.2184219,14.4137931 C48.2311501,14.4137931 66.9843603,23.9936796 82.3836986,40.0404358 C93.952865,52.0959924 97.4328422,69.8066261 91.6592437,85.3717095 L178.482477,165.67417 C178.979867,166.117382 179.426289,166.548232 179.846347,166.989613 C184.289469,171.619533 186.744347,177.801611 186.744347,184.382947 C186.744347,190.964283 184.289908,197.147277 179.833165,201.791391 C175.372027,206.439625 169.439369,209 163.128396,209 Z M69.6066461,96.6498131 C71.2108628,96.6498131 72.7882767,97.3489713 73.9082845,98.6634986 L153.81023,192.470197 C153.840108,192.505453 153.869987,192.541624 153.899426,192.577337 C154.110773,192.837862 154.326954,193.082819 154.56027,193.327319 C156.842907,195.704548 159.889644,197.019533 163.128396,197.019533 C166.368905,197.019533 169.414764,195.705464 171.70443,193.319077 C173.990143,190.937269 175.248998,187.763356 175.248998,184.382031 C175.248998,181.000707 173.990143,177.827252 171.70443,175.445444 C171.482977,175.212849 171.2501,174.990327 170.978996,174.749033 C170.949556,174.723392 170.920996,174.696836 170.891996,174.670738 L80.8721933,91.4109344 C78.9028426,89.5895517 78.372937,86.6061105 79.5860957,84.1707324 C85.4919509,72.3184674 83.3499195,57.9877851 74.2562822,48.5113759 C60.9655816,34.6619085 45.2511999,26.3938021 32.2201794,26.3938021 C25.9549024,26.3938021 20.7182398,28.3987882 17.0774455,32.1917328 C11.6764507,37.819338 10.1403395,46.8731388 12.7516406,57.6851371 C15.5136527,69.1125044 22.612894,81.2188839 32.7408578,91.7726468 C38.281579,97.5458528 45.6492882,100.72526 53.4862671,100.72526 C58.1719333,100.72526 62.8338724,99.5476338 66.9685422,97.3192102 C67.8051428,96.8682142 68.7102883,96.6498131 69.6066461,96.6498131 Z" id="Shape" fill="#FFFFFF"></path>
            </g>
        </g>
    </g>
</svg>