<?xml version="1.0" encoding="UTF-8"?>
<svg width="250px" height="250px" viewBox="0 0 250 250" version="1.1" xmlns="http://www.w3.org/2000/svg" xmlns:xlink="http://www.w3.org/1999/xlink">
    <!-- Generator: Sketch 46 (44423) - http://www.bohemiancoding.com/sketch -->
    <title>list</title>
    <desc>Created with Sketch.</desc>
    <defs></defs>
    <g id="icons---for-export" stroke="none" stroke-width="1" fill="none" fill-rule="evenodd">
        <g id="list" fill-rule="nonzero">
            <g id="invoice" transform="translate(43.000000, 26.000000)">
                <path d="M90.9754921,96.0689655 L62.7015684,96.0689655 C58.8395832,96.0689655 55.7083209,92.8147642 55.7083209,88.8002038 L55.7083209,68.8079303 C47.3241716,67.6517098 40.9058792,60.0239603 41.2643086,50.9106708 C41.6158059,41.9758156 48.6017135,34.7045109 57.1970875,34.3264505 C63.3723493,34.0547726 68.8389076,37.2797294 71.9289851,42.2504604 C74.8975473,37.4742694 80.0603173,34.3103448 85.9374996,34.3103448 C91.8146818,34.3103448 96.9774519,37.4742694 99.946014,42.2504604 C103.035684,37.2797294 108.50265,34.0547726 114.677912,34.3264505 C123.273286,34.7045109 130.259601,41.9758156 130.610691,50.9106708 C130.96912,60.0243841 124.551235,67.6517098 116.166678,68.8079303 L116.166678,88.8002038 C116.166678,92.8143404 113.035824,96.0689655 109.173431,96.0689655 L106.955572,96.0689655 L90.9754921,96.0689655 L90.9754921,96.0689655 Z" id="Shape" fill="#fff" opacity="0.4"></path>
                <g id="Group" fill="#C6C6C6">
                    <path d="M104.780083,97.0478691 L60.2191351,97.0478691 C53.4994905,97.0478691 48.0325948,91.6130703 48.0325948,84.9333555 L48.0325948,70.8230117 C39.515936,67.6592227 33.7988033,59.4011113 34.1870616,49.9653242 C34.6394431,38.9744609 43.6534479,30.0008047 54.7092299,29.5351758 C60.0427962,29.3171309 65.0811611,31.017959 69.0673578,34.2039023 C72.8216943,31.2025781 77.5281043,29.5157422 82.499609,29.5157422 C87.4711137,29.5157422 92.1775237,31.2025781 95.9318602,34.2039023 C99.9180569,31.0175703 104.960332,29.3097461 110.289597,29.5351758 C121.34577,30.000416 130.359775,38.9740723 130.812156,49.9653242 C131.200415,59.4011113 125.483282,67.66 116.966623,70.8230117 L116.966623,84.9333555 C116.967014,91.613459 111.499727,97.0478691 104.780083,97.0478691 Z M55.6351066,40.4133242 C55.4822275,40.4133242 55.3277844,40.4164336 55.1737322,40.423041 C49.7690047,40.6504141 45.3624882,45.0377422 45.1415758,50.4095762 C44.9179265,55.8470957 48.8274882,60.4851172 54.2353436,61.1983301 C56.9601896,61.5574629 58.9961019,63.8673398 58.9961019,66.5997031 L58.9961019,84.9329668 C58.9961019,85.6038145 59.5446682,86.1495098 60.2195261,86.1495098 L104.780474,86.1495098 C105.455332,86.1495098 106.003898,85.6034258 106.003898,84.9329668 L106.003898,66.5997031 C106.003898,63.8669512 108.03981,61.5574629 110.764656,61.1983301 C116.172512,60.4851172 120.082073,55.8474844 119.858424,50.4095762 C119.637512,45.0373535 115.230995,40.6500254 109.826268,40.423041 C106.06372,40.2722363 102.569005,42.0745078 100.53622,45.2021504 C99.5266706,46.7560605 97.7926066,47.6939258 95.9322512,47.6939258 L95.9322512,47.6939258 C94.0711137,47.6939258 92.3382227,46.7548945 91.328282,45.2021504 C89.3791706,42.2031582 86.0791706,40.4133242 82.500391,40.4133242 C78.9216114,40.4133242 75.6212204,42.2031582 73.6725,45.2021504 C72.6629502,46.7556719 70.9296682,47.6939258 69.0685308,47.6939258 C67.2073934,47.6939258 65.4737204,46.7556719 64.4641706,45.2021504 C62.5142773,42.2031582 59.2138863,40.4133242 55.6351066,40.4133242 Z" id="Shape"></path>
                    <path d="M144.274123,199 L137.302678,199 C134.275201,199 131.821315,196.559918 131.821315,193.551209 C131.821315,190.5425 134.275201,188.102418 137.302678,188.102418 L144.274123,188.102418 C149.504076,188.102418 153.758495,183.872891 153.758495,178.674404 L153.758495,20.1281504 C153.758495,15.0384922 149.592441,10.897582 144.472749,10.897582 L20.5268602,10.897582 C15.4067773,10.897582 11.2411137,15.0388809 11.2411137,20.1281504 L11.2411137,178.674016 C11.2411137,183.872891 15.4959242,188.102029 20.7254858,188.102029 L28.5383531,188.102029 C29.8802488,188.102029 30.9715166,187.017246 30.9715166,185.683324 L30.9715166,183.713535 C30.9715166,176.370746 36.9807227,170.396859 44.3677962,170.396859 L59.231872,170.396859 C66.6185545,170.396859 72.6281517,176.371135 72.6281517,183.713535 L72.6281517,185.683324 C72.6281517,187.017246 73.7202014,188.102029 75.0613152,188.102029 L90.7781517,188.102029 C92.1200474,188.102029 93.2113152,187.017246 93.2113152,185.683324 L93.2113152,183.713535 C93.2113152,176.370746 99.2213033,170.396859 106.607986,170.396859 L114.93032,170.396859 C117.957796,170.396859 120.411682,172.836941 120.411682,175.84565 C120.411682,178.854359 117.957796,181.294441 114.93032,181.294441 L106.608768,181.294441 C105.266872,181.294441 104.174822,182.379225 104.174822,183.713146 L104.174822,185.682936 C104.174822,193.025725 98.1656161,198.999611 90.7785427,198.999611 L75.0617062,198.999611 C67.6750237,198.999611 61.6654265,193.025336 61.6654265,185.682936 L61.6654265,183.713146 C61.6654265,182.379225 60.5733768,181.294441 59.232263,181.294441 L44.3681872,181.294441 C43.0262915,181.294441 41.9350237,182.379225 41.9350237,183.713146 L41.9350237,185.682936 C41.9350237,193.025725 35.9258175,198.999611 28.5387441,198.999611 L20.7258768,198.999611 C9.45113744,198.999611 0.278388626,189.881369 0.278388626,178.673627 L0.278388626,20.1281504 C0.27799763,9.02923633 9.36199052,0 20.5268602,0 L144.472749,0 C155.638009,0 164.72122,9.02923633 164.72122,20.1281504 L164.72122,178.674016 C164.72122,189.881758 155.548863,199 144.274123,199 Z" id="Shape"></path>
                    <path d="M84.8764692,124.610924 L32.25359,124.610924 C29.2261137,124.610924 26.7722275,122.170842 26.7722275,119.162133 C26.7722275,116.153424 29.2261137,113.713342 32.25359,113.713342 L84.8764692,113.713342 C87.9039455,113.713342 90.3578318,116.153424 90.3578318,119.162133 C90.3578318,122.170842 87.9039455,124.610924 84.8764692,124.610924 Z" id="Shape"></path>
                    <path d="M84.8764692,153.19502 L32.25359,153.19502 C29.2261137,153.19502 26.7722275,150.754937 26.7722275,147.746229 C26.7722275,144.73752 29.2261137,142.297438 32.25359,142.297438 L84.8764692,142.297438 C87.9039455,142.297438 90.3578318,144.73752 90.3578318,147.746229 C90.3578318,150.754937 87.9039455,153.19502 84.8764692,153.19502 Z" id="Shape"></path>
                    <path d="M132.746019,124.610924 L113.014834,124.610924 C109.987358,124.610924 107.533472,122.170842 107.533472,119.162133 C107.533472,116.153424 109.987358,113.713342 113.014834,113.713342 L132.746019,113.713342 C135.773495,113.713342 138.227382,116.153424 138.227382,119.162133 C138.227382,122.170842 135.773495,124.610924 132.746019,124.610924 Z" id="Shape"></path>
                    <path d="M132.746019,153.19502 L113.014834,153.19502 C109.987358,153.19502 107.533472,150.754937 107.533472,147.746229 C107.533472,144.73752 109.987358,142.297438 113.014834,142.297438 L132.746019,142.297438 C135.773495,142.297438 138.227382,144.73752 138.227382,147.746229 C138.227382,150.754937 135.773495,153.19502 132.746019,153.19502 Z" id="Shape"></path>
                </g>
            </g>
        </g>
    </g>
</svg>
