<?xml version="1.0" encoding="UTF-8"?>
<svg width="250px" height="198px" viewBox="0 0 250 198" version="1.1" xmlns="http://www.w3.org/2000/svg" xmlns:xlink="http://www.w3.org/1999/xlink">
    <!-- Generator: Sketch 46.2 (44496) - http://www.bohemiancoding.com/sketch -->
    <title>muffin</title>
    <desc>Created with Sketch.</desc>
    <defs></defs>
    <g id="icons---for-export" stroke="none" stroke-width="1" fill="none" fill-rule="evenodd">
        <g id="muffin" fill-rule="nonzero" fill="#FFFFFF">
            <g id="Group" transform="translate(28.000000, 10.000000)">
                <path d="M141.887745,183 L50.4189964,183 C40.6564263,183 32.1423157,176.177417 30.1746902,166.777123 L18.1152685,111.573021 C17.4959323,108.613926 19.4341961,105.721794 22.4443578,105.112964 C25.454128,104.50529 28.396562,106.409902 29.0158982,109.368612 L41.0753199,164.572329 C41.9835752,168.911104 45.9129539,172.059545 50.4189964,172.059545 L141.887745,172.059545 C146.393787,172.059545 150.323166,168.910335 151.231421,164.572329 L155.984102,141.864766 C156.603438,138.90567 159.544698,137.001058 162.555642,137.609118 C165.565804,138.217947 167.504068,141.109694 166.884732,144.069174 L162.132051,166.776738 C160.164425,176.177417 151.651098,183 141.887745,183 Z" id="Shape"></path>
                <path d="M152.903336,37.0295054 C148.574258,37.0295054 144.418649,37.7531579 140.540364,39.0667486 C136.402065,19.6101831 118.930741,5 97.9996154,5 C77.06849,5 59.5971661,19.6101831 55.4588667,39.0667486 C51.5813505,37.7531579 47.4253579,37.0295054 43.0958943,37.0295054 C22.0563016,37.0295054 5,53.8744641 5,74.6537373 C5,95.4330104 22.0563016,112.277969 43.096279,112.277969 L68.1649344,112.277969 C75.9515069,119.539945 86.445148,124 98,124 C109.554852,124 120.048878,119.539566 127.835066,112.277969 L152.903721,112.277969 C173.943698,112.277969 191,95.4330104 191,74.6537373 C190.999615,53.8744641 173.943314,37.0295054 152.903336,37.0295054 Z" id="Shape" opacity="0.198652627"></path>
                <path d="M97.9992344,131 C86.2633974,131 75.0615818,126.814597 66.2144367,119.169538 L43.3564088,119.169538 C19.4498615,119.168771 0,99.6901819 0,75.7470866 C0,51.8039913 19.4498615,32.3257856 43.3564088,32.3257856 C46.2183038,32.3257856 49.0579959,32.6075729 51.8483053,33.1661633 C58.4460529,13.6457854 77.0204257,0 98,0 C118.979574,0 137.553947,13.6457854 144.151695,33.1661633 C146.941239,32.6075729 149.781313,32.3257856 152.643591,32.3257856 C176.550138,32.3257856 196,51.8047581 196,75.7470866 C196,99.6894151 176.550138,119.168388 152.643591,119.168388 L129.784415,119.168388 C120.937653,126.814214 109.735454,131 97.9992344,131 Z M43.3564088,43.2242416 C25.4496584,43.2242416 10.8817856,57.8143017 10.8817856,75.74747 C10.8817856,93.6806382 25.4496584,108.270698 43.3564088,108.270698 L68.306116,108.270698 C69.6953371,108.270698 71.0321132,108.803219 72.0419686,109.757845 C79.0944957,116.427959 88.3133503,120.101544 98,120.101544 C107.68665,120.101544 116.905121,116.428342 123.958031,109.757845 C124.967887,108.802452 126.304663,108.270698 127.693884,108.270698 L152.643591,108.270698 C170.549959,108.270698 185.118214,93.6810216 185.118214,75.74747 C185.118214,57.8139183 170.550342,43.2242416 152.643591,43.2242416 C149.052441,43.2242416 145.506463,43.8165698 142.104804,44.9855075 C140.629068,45.4923411 139.007863,45.3401377 137.651181,44.5691525 C136.295264,43.7974006 135.334792,42.4804767 135.013996,40.9515414 C131.361596,23.5378584 115.794587,10.8988393 98,10.8988393 C80.2054133,10.8988393 64.6384038,23.5374751 60.986004,40.9515414 C60.6655912,42.4804767 59.7051183,43.797784 58.3488189,44.5691525 C56.9925196,45.3405211 55.3709321,45.4927245 53.8951957,44.9855075 C50.4935371,43.8169532 46.9475588,43.2242416 43.3564088,43.2242416 Z" id="Shape"></path>
                <path d="M73.6598617,183 C71.0825461,183 68.8159042,181.055338 68.3994214,178.327745 L63.0665657,143.407226 C62.6054329,140.385791 64.5891667,137.547909 67.4981677,137.068953 C70.4056678,136.590777 73.1394458,138.650404 73.6005786,141.67184 L78.9334343,176.592358 C79.3945671,179.613794 77.4108333,182.451675 74.5018323,182.930631 C74.2189242,182.977397 73.9371417,183 73.6598617,183 Z" id="Shape"></path>
                <path d="M122.340235,183 C122.066717,183 121.789822,182.978051 121.511052,182.933767 C118.601031,182.467442 116.610241,179.668338 117.064603,176.681702 L122.397265,141.629548 C122.852003,138.642912 125.581554,136.600863 128.488948,137.066033 C131.398969,137.532358 133.389759,140.331463 132.935397,143.318098 L127.602735,178.370252 C127.191895,181.070778 124.922334,183 122.340235,183 Z" id="Shape"></path>
                <path d="M80.5826982,93 C77.5910823,93 75.1661585,90.5300411 75.1661585,87.4828657 C75.1661585,78.9647488 68.3624238,72.0346568 59.9996189,72.0346568 C51.636814,72.0346568 44.8330793,78.9647488 44.8330793,87.4828657 C44.8330793,90.5300411 42.4081555,93 39.4165396,93 C36.4249238,93 34,90.5300411 34,87.4828657 C34,72.8804906 45.6634909,61 60,61 C74.3365091,61 86,72.8801024 86,87.4828657 C85.9992378,90.5300411 83.574314,93 80.5826982,93 Z" id="Shape"></path>
                <path d="M155.582698,93 C152.591082,93 150.166159,90.5300411 150.166159,87.4828657 C150.166159,78.9647488 143.362424,72.0346568 134.999619,72.0346568 C126.636814,72.0346568 119.833079,78.9647488 119.833079,87.4828657 C119.833079,90.5300411 117.408155,93 114.41654,93 C111.424924,93 109,90.5300411 109,87.4828657 C109,72.8804906 120.663491,61 135,61 C149.336509,61 161,72.8801024 161,87.4828657 C160.999238,90.5300411 158.573933,93 155.582698,93 Z" id="Shape"></path>
            </g>
        </g>
    </g>
</svg>