<?xml version="1.0" encoding="UTF-8"?>
<svg width="250px" height="198px" viewBox="0 0 250 198" version="1.1" xmlns="http://www.w3.org/2000/svg" xmlns:xlink="http://www.w3.org/1999/xlink">
    <!-- Generator: Sketch 46.2 (44496) - http://www.bohemiancoding.com/sketch -->
    <title>one-pot</title>
    <desc>Created with Sketch.</desc>
    <defs></defs>
    <g id="icons---for-export" stroke="none" stroke-width="1" fill="none" fill-rule="evenodd">
        <g id="one-pot" fill-rule="nonzero" fill="#FFFFFF">
            <g id="pot-1-copy" transform="translate(13.000000, 7.000000)">
                <path d="M177.645031,22.1285022 L121.584941,22.1285022 C122.012844,20.794464 122.247933,19.3602785 122.247933,17.8656267 C122.247933,10.7603617 116.987999,5 110.5,5 C104.012001,5 98.7520675,10.7598893 98.7520675,17.8656267 C98.7520675,19.3602785 98.9875869,20.7939916 99.4150589,22.1285022 L43.3554002,22.1285022 C37.1102536,22.1285022 32,27.7244711 32,34.5642511 L32,34.5642511 C32,41.4040311 37.1098222,47 43.3554002,47 L177.6446,47 C183.889746,47 189,41.4040311 189,34.5642511 L189,34.5642511 C188.999569,27.7254159 183.890178,22.1285022 177.645031,22.1285022 Z" id="Shape" opacity="0.198652627"></path>
                <g id="Group" transform="translate(27.000000, 0.000000)">
                    <path d="M153.750738,52.1896269 L17.2494946,52.1896269 C7.84538287,52.1896269 0.195553611,44.2409134 0.195553611,34.4703921 C0.195553611,24.6998707 7.84582133,16.7516129 17.2494946,16.7516129 L68.1162334,16.7516129 C68.9054632,7.50635895 76.4005157,0.233249729 85.5003356,0.233249729 C94.6001554,0.233249729 102.095208,7.50635895 102.884438,16.7516129 L153.750738,16.7516129 C163.15485,16.7516129 170.804679,24.7003263 170.804679,34.4703921 C170.805118,44.2409134 163.15485,52.1896269 153.750738,52.1896269 Z M17.2494946,28.2040834 C13.9237679,28.2040834 11.2184634,31.0153805 11.2184634,34.4699365 C11.2184634,37.9254037 13.9242063,40.7362451 17.2494946,40.7362451 L153.750738,40.7362451 C157.076465,40.7362451 159.781769,37.9249481 159.781769,34.4699365 C159.781769,31.0153805 157.076026,28.2040834 153.750738,28.2040834 L96.7679066,28.2040834 C94.981178,28.2040834 93.3045031,27.3038853 92.2710505,25.7886732 C91.2375979,24.273461 90.9753982,22.3322948 91.567759,20.5797329 C91.809351,19.8667723 91.9308047,19.1223777 91.9308047,18.3665939 C91.9308047,14.6824326 89.0466082,11.6857203 85.500774,11.6857203 C81.9549398,11.6857203 79.0707433,14.6824326 79.0707433,18.3665939 C79.0707433,19.1223777 79.1930739,19.8667723 79.433789,20.5797329 C80.0257114,22.3318393 79.7639502,24.273461 78.7304976,25.7886732 C77.697045,27.3038853 76.02037,28.2040834 74.2336414,28.2040834 L17.2494946,28.2040834 Z" id="Shape"></path>
                    <path d="M117.199313,186.547849 L53.8017968,186.547849 C28.7354193,186.547849 8.34215919,165.359024 8.34215919,139.314323 L8.34215919,78.6088032 C8.34215919,75.4467204 10.8102562,72.8823401 13.8536141,72.8823401 C16.896972,72.8823401 19.365069,75.4467204 19.365069,78.6088032 L19.365069,139.314323 C19.365069,159.04397 34.8133658,175.094923 53.8017968,175.094923 L117.199751,175.094923 C136.188182,175.094923 151.636479,159.04397 151.636479,139.314323 L151.636479,78.6088032 C151.636479,75.4467204 154.104576,72.8823401 157.147934,72.8823401 C160.191292,72.8823401 162.659389,75.4467204 162.659389,78.6088032 L162.659389,139.314323 C162.65895,165.359024 142.26569,186.547849 117.199313,186.547849 Z" id="Shape"></path>
                </g>
                <path d="M41.9990753,78.6237972 C35.1464649,74.1232553 27.3728371,71.1706613 19.29544,70.1045536 C15.9211502,69.6664733 12.5986444,70.6142848 9.91696705,72.7743911 C7.24684866,74.9263224 5.53473638,78.042896 5.10150678,81.5436915 C4.2216392,88.7626396 9.16008674,95.386741 16.1010075,96.3028145 C29.2749786,98.0301301 39.7432298,108.506549 42,122 L42,78.6237972 L41.9990753,78.6237972 L41.9990753,78.6237972 Z" id="Shape" opacity="0.198652627"></path>
                <path d="M38.7366358,125 C36.2049493,125 34.0012817,123.040772 33.5594603,120.311269 C31.8942624,110.008216 24.2941822,102.20687 14.647331,100.898167 C5.48121162,99.6470884 -1.02728543,90.6108706 0.134169175,80.7544062 C0.707365431,75.9697847 2.96291362,71.7222401 6.48827978,68.7838487 C9.45802214,66.3082527 13.0030527,65 16.7397065,65 C17.439257,65 18.1484305,65.0477202 18.8471442,65.1413597 C26.8271239,66.2312702 34.6740551,69.2759066 41.549063,73.9475303 C43.0745182,74.9843184 44,76.7900313 44,78.7321518 L44,119.341559 C44,122.2777 41.9122268,124.727185 39.1931009,124.979291 C39.0399696,124.993247 38.8872568,125 38.7366358,125 Z M16.7397065,76.3177818 C15.3560861,76.3177818 14.0385715,76.8062381 12.9298342,77.7300284 C11.620269,78.8221899 10.7809758,80.405959 10.5675962,82.1891624 C10.1370714,85.8438065 12.5583026,89.2044764 15.9665192,89.6695229 C22.6733338,90.5793573 28.7107221,93.6136393 33.4820579,98.1578592 L33.4820579,81.9649677 C28.5207724,79.0459344 23.0611826,77.1249728 17.5342319,76.370454 C17.2765027,76.3357894 17.0053851,76.3177818 16.7397065,76.3177818 Z" id="Shape"></path>
                <path d="M220.89849,81.5437311 C220.464787,78.0430223 218.75217,74.9255641 216.08291,72.7746478 C213.400703,70.614595 210.078577,69.6658452 206.704202,70.1048764 C198.627528,71.1709577 190.852782,74.1225169 184,78.6239091 L184,122 C186.256827,108.506883 196.724415,98.0307234 209.89964,96.3034506 C216.839809,95.3873997 221.77838,88.7625005 220.89849,81.5437311 Z" id="Shape" opacity="0.198652627"></path>
                <path d="M187.263939,125 C187.112477,125 186.960597,124.993247 186.807042,124.979292 C184.087835,124.726743 182,122.278233 182,119.341732 L182,78.7335679 C182,76.7915068 182.925091,74.9858491 184.45101,73.9490928 C191.326641,69.2771618 199.173388,66.2330688 207.142727,65.1440921 C211.640987,64.5408556 215.98653,65.8463673 219.51242,68.7846688 C223.038309,71.7238707 225.293925,75.9712853 225.865464,80.7449561 C227.028627,90.6123732 220.519936,99.6474141 211.357309,100.898004 C201.706405,102.206667 194.10568,110.008225 192.440851,120.310962 C191.999016,123.040832 189.795701,125 187.263939,125 Z M192.518256,81.9662848 L192.518256,98.1591309 C197.289315,93.61505 203.329394,90.5799605 210.038082,89.670154 C213.443053,89.2060221 215.864356,85.8450049 215.432145,82.1796684 C215.220014,80.4073238 214.380696,78.8236031 213.070673,77.7314751 C211.749354,76.6312439 210.123018,76.1527064 208.456515,76.373743 C202.938605,77.1268882 197.47927,79.0473408 192.518256,81.9662848 Z" id="Shape"></path>
            </g>
        </g>
    </g>
</svg>