<?xml version="1.0" encoding="UTF-8"?>
<svg width="250px" height="198px" viewBox="0 0 250 198" version="1.1" xmlns="http://www.w3.org/2000/svg" xmlns:xlink="http://www.w3.org/1999/xlink">
    <!-- Generator: Sketch 46.2 (44496) - http://www.bohemiancoding.com/sketch -->
    <title>oven</title>
    <desc>Created with Sketch.</desc>
    <defs></defs>
    <g id="icons---for-export" stroke="none" stroke-width="1" fill="none" fill-rule="evenodd">
        <g id="oven" fill-rule="nonzero" fill="#FFFFFF">
            <g id="wallet" transform="translate(18.000000, 14.000000)">
                <path d="M199.594891,123 L144.812057,123 C126.718995,123 112,108.196697 112,90 C112,71.8033033 126.718995,57 144.812057,57 L199.594891,57 C207.537982,57 214,63.499455 214,71.4876191 L214,108.511958 C214.000421,116.500545 207.537982,123 199.594891,123 Z M144.812057,69.3188772 C133.47302,69.3188772 124.248718,78.5968609 124.248718,90 C124.248718,101.403139 133.473861,110.681123 144.812057,110.681123 L199.594891,110.681123 C200.783536,110.681123 201.751282,109.707834 201.751282,108.512381 L201.751282,71.4880423 C201.751282,70.2925894 200.783536,69.3193004 199.594891,69.3193004 L144.812057,69.3193004 L144.812057,69.3188772 Z" id="SVGCleanerId_0"></path>
                <g id="Group">
                    <path d="M182.318636,174.122255 L24.4283642,174.122255 C10.959046,174.122255 0,163.205301 0,149.786381 L0,24.672804 C0,11.2534709 10.959046,0.336930267 24.4283642,0.336930267 L182.318636,0.336930267 C195.78837,0.336930267 206.747001,11.2542978 206.747001,24.672804 L206.747001,35.7832346 C206.747001,39.1058218 204.042098,41.8004371 200.706827,41.8004371 C197.371555,41.8004371 194.666653,39.1058218 194.666653,35.7832346 L194.666653,24.672804 C194.666653,17.8899637 189.127786,12.3717487 182.319051,12.3717487 L24.4283642,12.3717487 C17.6196294,12.3717487 12.0807629,17.8895503 12.0807629,24.672804 L12.0807629,149.786381 C12.0807629,156.569221 17.6196294,162.087436 24.4283642,162.087436 L182.318636,162.087436 C189.127371,162.087436 194.666238,156.568808 194.666238,149.786381 L194.666238,137.773887 C194.666238,134.4513 197.37114,131.756684 200.706412,131.756684 C204.041683,131.756684 206.746586,134.4513 206.746586,137.773887 L206.746586,149.786381 C206.746586,163.205301 195.78837,174.122255 182.318636,174.122255 Z" id="Shape"></path>
                    <path d="M147.36074,95.3303351 L141.320981,95.3303351 C137.98571,95.3303351 135.280807,92.6357198 135.280807,89.3131326 C135.280807,85.9905454 137.98571,83.2959301 141.320981,83.2959301 L147.36074,83.2959301 C150.696012,83.2959301 153.400914,85.9905454 153.400914,89.3131326 C153.401329,92.6357198 150.696427,95.3303351 147.36074,95.3303351 Z" id="Shape"></path>
                </g>
                <path d="M112.898813,82 C112.898813,67.4443295 124.569183,55.6439731 138.96594,55.6439731 L158.999589,55.6439731 L158.999589,49.5960775 L158.999589,42.529742 C158.999589,39.4760845 156.551429,37 153.530375,37 L43.4696254,37 C40.4489817,37 38,39.4760845 38,42.5301575 L38,121.470258 C38,124.523915 40.4481598,127 43.4692145,127 L153.530375,127 C156.551018,127 159,124.523915 159,121.469842 L159,114.403507 L159,108.355611 L138.965529,108.355611 C124.569594,108.355611 112.898813,96.556086 112.898813,82 Z" id="Shape" fill-opacity="0.2"></path>
                <path d="M160.28677,141 L47.7123897,141 C41.253614,141 36,135.709569 36,129.206474 L36,48.794373 C36,42.2908546 41.2544547,37 47.7132304,37 L160.28761,37 C166.746386,37 172,42.2904313 172,48.7935264 L172,62.1527226 C172,65.5545304 169.260117,68.3133936 165.881713,68.3133936 L145.390601,68.3133936 C134.062417,68.3133936 124.846944,77.5935525 124.846944,89.0002116 C124.846944,100.406871 134.063257,109.686183 145.390601,109.686183 L165.881713,109.686183 C169.260117,109.686183 172,112.445046 172,115.846854 L172,129.20605 C171.999159,135.709145 166.744705,141 160.28677,141 Z M48.2365741,128.678235 L159.762165,128.678235 L159.762165,122.007948 L145.38934,122.007948 C127.313595,122.007948 112.608688,107.201175 112.608688,89.0002116 C112.608688,70.7992487 127.313595,55.9920515 145.38934,55.9920515 L159.762165,55.9920515 L159.762165,49.3221886 L48.2365741,49.3221886 L48.2365741,128.678235 Z" id="Shape"></path>
            </g>
        </g>
    </g>
</svg>