<?xml version="1.0" encoding="UTF-8"?>
<svg width="250px" height="198px" viewBox="0 0 250 198" version="1.1" xmlns="http://www.w3.org/2000/svg" xmlns:xlink="http://www.w3.org/1999/xlink">
    <!-- Generator: Sketch 46.2 (44496) - http://www.bohemiancoding.com/sketch -->
    <title>pan</title>
    <desc>Created with Sketch.</desc>
    <defs></defs>
    <g id="icons---for-export" stroke="none" stroke-width="1" fill="none" fill-rule="evenodd">
        <g id="pan" fill-rule="nonzero" fill="#FFFFFF">
            <g id="Group" transform="translate(5.000000, 27.000000)">
                <path d="M121.602695,148 L50.4517209,148 C41.85372,148 33.6267144,144.759442 27.285601,138.874983 C20.9604141,133.005238 17.0560645,125.009931 16.2883106,116.355784 L12.0363872,76.1694423 C11.665392,72.6568992 14.173357,69.5046291 17.6392577,69.1277427 C21.1065637,68.7560776 24.216459,71.2931781 24.588391,74.8052465 L28.8459355,115.048548 C28.8501514,115.088895 28.8543672,115.129242 28.8571778,115.169588 C29.8507142,126.593423 39.1340255,135.208647 50.4526577,135.208647 L121.603164,135.208647 C132.921328,135.208647 142.205107,126.593423 143.198644,115.169588 C143.201923,115.132564 143.204733,115.096015 143.209418,115.058991 L147.411688,74.7264516 C147.777062,71.2139085 150.878994,68.656872 154.350516,69.0375558 C157.816885,69.4077968 160.330471,72.5562696 159.964628,76.0688127 L155.76798,116.349613 C155.001162,125.006133 151.097281,133.003814 144.770221,138.874508 C138.427702,144.758492 130.200696,148 121.602695,148 Z" id="Shape"></path>
                <path d="M221.891571,76 L152.239263,76 L150,98 L221.891571,98 C228.00116,98 233,93.0498495 233,86.9997685 L233,86.9997685 C233,80.9501505 228.001628,76 221.891571,76 Z" id="Shape" fill-opacity="0.2"></path>
                <path d="M223.518868,105 L151.324991,105 C149.537303,105 147.832708,104.221217 146.633718,102.855083 C145.434258,101.489432 144.852602,99.6655029 145.031934,97.8333557 L147.280628,74.8599705 C147.60643,71.5331006 150.325519,69 153.573685,69 L223.519338,69 C233.157738,69 241,77.0744998 241,87.0004834 C241,96.9259836 233.158208,105 223.518868,105 Z M158.319416,91.9729018 L223.518868,91.9729018 C226.181622,91.9729018 228.348631,89.7414529 228.348631,86.9990332 C228.348631,84.2566134 226.181622,82.0251645 223.518868,82.0251645 L159.293067,82.0251645 L158.319416,91.9729018 Z" id="Shape"></path>
                <path d="M150.739471,23.9440515 L97.9426427,23.9440515 C98.4421445,22.5460536 98.717035,21.0441754 98.717035,19.4781222 C98.717035,12.034291 92.5749949,6 84.9992952,6 C77.4235954,6 71.2810854,12.0338293 71.2810854,19.4781222 C71.2810854,21.0437137 71.5559759,22.5460536 72.0554777,23.9440515 L19.259589,23.9440515 C11.967238,23.9440515 6,29.8065938 6,36.9720258 L6,36.9720258 C6,44.1374578 11.9667681,50 19.259589,50 L150.740411,50 C158.032762,50 164,44.1374578 164,36.9720258 L164,36.9720258 C163.99906,29.8070555 158.032292,23.9440515 150.739471,23.9440515 Z" id="Shape" fill-opacity="0.2"></path>
                <path d="M150.486225,58 L19.5142434,58 C8.75449494,58 0,49.1263753 0,38.2202099 C0,27.3126212 8.75449494,18.4394709 19.5142434,18.4394709 L65.1075482,18.4394709 C66.010474,8.11877592 74.5870986,0 85.0004681,0 C95.4129014,0 103.989526,8.11877592 104.892452,18.4394709 L150.485757,18.4394709 C161.246441,18.4394709 170,27.3130956 170,38.2202099 C170.001404,49.1263753 161.246909,58 150.486225,58 Z M19.5142434,31.223981 C15.7092234,31.223981 12.6133441,34.3619884 12.6133441,38.219261 C12.6133441,42.0760591 15.7092234,45.2140666 19.5142434,45.2140666 L150.486225,45.2140666 C154.291245,45.2140666 157.387124,42.0760591 157.387124,38.219261 C157.387124,34.3619884 154.291245,31.223981 150.486225,31.223981 L97.8937239,31.223981 C95.8491517,31.223981 93.9304929,30.2190974 92.7481236,28.5276858 C91.5657542,26.8362741 91.265247,24.6689898 91.9434945,22.7128355 C92.2191935,21.918133 92.3586812,21.0873723 92.3586812,20.2419037 C92.3586812,16.1293774 89.0582511,12.78451 85.0014042,12.78451 C80.9436212,12.78451 77.6431911,16.1298519 77.6431911,20.2419037 C77.6431911,21.0868978 77.7831469,21.918133 78.0583778,22.7128355 C78.7356892,24.6689898 78.4361181,26.8362741 77.2537488,28.5276858 C76.0713794,30.2190974 74.1527206,31.223981 72.1081484,31.223981 L19.5142434,31.223981 Z" id="Shape"></path>
            </g>
        </g>
    </g>
</svg>