<?xml version="1.0" encoding="UTF-8"?>
<svg width="250px" height="250px" viewBox="0 0 250 250" version="1.1" xmlns="http://www.w3.org/2000/svg" xmlns:xlink="http://www.w3.org/1999/xlink">
    <!-- Generator: Sketch 46 (44423) - http://www.bohemiancoding.com/sketch -->
    <title>refrigirator</title>
    <desc>Created with Sketch.</desc>
    <defs></defs>
    <g id="icons---for-export" stroke="none" stroke-width="1" fill="none" fill-rule="evenodd">
        <g id="refrigirator" fill-rule="nonzero" fill="#C6C6C6">
            <path d="M55.7917944,87.1612389 L187.645706,87.1612389 C190.69365,87.1612389 193.166411,89.6337898 193.166411,92.6816667 C193.166411,95.7295435 190.69365,98.2020945 187.645706,98.2020945 L50.2707056,98.2020945 C47.222761,98.2020945 44.75,95.7295435 44.75,92.6816667 L44.75,40.3529055 C44.75,30.0930704 53.093779,21.75 63.3542944,21.75 L187.645706,21.75 C197.906221,21.75 206.25,30.0930704 206.25,40.3529055 L206.25,190.798333 C206.25,199.039326 200.826365,206.185523 193.166794,208.564013 L193.166794,223.729572 C193.166794,226.777449 190.694033,229.25 187.646089,229.25 L63.3542944,229.25 C60.3063498,229.25 57.8335889,226.777449 57.8335889,223.729572 L57.8335889,208.563375 C50.1732154,206.182315 44.7503833,199.038502 44.7503833,190.798333 L44.7503833,105.763761 C44.7503833,102.715884 47.2231443,100.243333 50.2710889,100.243333 C53.3190335,100.243333 55.7917944,102.715884 55.7917944,105.763761 L55.7917944,190.798333 C55.7917944,194.965098 59.1869851,198.36 63.3542944,198.36 L174.5625,198.36 C177.610445,198.36 180.083206,200.832551 180.083206,203.880428 C180.083206,206.928305 177.610445,209.400856 174.5625,209.400856 L68.875,209.400856 L68.875,218.208761 L182.125383,218.208761 L182.125383,203.880428 C182.125383,200.832551 184.598144,198.36 187.646089,198.36 C191.813398,198.36 195.208589,194.965098 195.208589,190.798333 L195.208589,40.3529055 C195.208589,36.1861412 191.813398,32.7912389 187.646089,32.7912389 L63.3542944,32.7912389 C59.1869851,32.7912389 55.7917944,36.1861412 55.7917944,40.3529055 L55.7917944,87.1612389 Z" id="Shape"></path>
            <path d="M70.8913043,80.3833333 C67.7690496,80.3833333 65.2282609,77.8645565 65.2282609,74.7497357 L65.2282609,61.2165345 C65.2282609,58.1020077 67.7691518,55.5833333 70.8913043,55.5833333 C74.0134569,55.5833333 76.5543478,58.1020077 76.5543478,61.2165345 L76.5543478,74.7501322 C76.5543478,77.864659 74.0134569,80.3833333 70.8913043,80.3833333 Z" id="Shape"></path>
            <path d="M70.8913043,161.583333 C67.7690496,161.583333 65.2282609,159.064556 65.2282609,155.949736 L65.2282609,115.349868 C65.2282609,112.235341 67.7691518,109.716667 70.8913043,109.716667 C74.0134569,109.716667 76.5543478,112.235341 76.5543478,115.349868 L76.5543478,155.950132 C76.5543478,159.064659 74.0134569,161.583333 70.8913043,161.583333 Z" id="Shape-Copy"></path>
        </g>
    </g>
</svg>
