<?xml version="1.0" encoding="UTF-8"?>
<svg width="250px" height="250px" viewBox="0 0 250 250" version="1.1" xmlns="http://www.w3.org/2000/svg" xmlns:xlink="http://www.w3.org/1999/xlink">
    <!-- Generator: Sketch 46 (44423) - http://www.bohemiancoding.com/sketch -->
    <title>refrigirator</title>
    <desc>Created with Sketch.</desc>
    <defs></defs>
    <g id="icons---for-export" stroke="none" stroke-width="1" fill="none" fill-rule="evenodd">
        <g id="refrigirator" stroke="#FFFFFF" stroke-width="0.699999988" fill="#FFFFFF" fill-rule="nonzero">
            <g id="Group-3" transform="translate(47.000000, 24.000000)">
                <path d="M140.645706,0 L16.3542944,0 C7.33637695,0 0,7.33575391 0,16.3529055 L0,68.6816667 C0,70.48686 1.46535889,71.9520945 3.27070557,71.9520945 L140.645706,71.9520945 C142.451052,71.9520945 143.916411,70.48686 143.916411,68.6816667 C143.916411,66.8764733 142.451052,65.4112389 140.645706,65.4112389 L6.54179443,65.4112389 L6.54179443,16.3529055 C6.54179443,10.9434577 10.9443872,6.54123887 16.3542944,6.54123887 L140.646089,6.54123887 C146.055996,6.54123887 150.458589,10.9434577 150.458589,16.3529055 L150.458589,166.798333 C150.458589,172.207781 146.055996,176.61 140.646089,176.61 C138.840742,176.61 137.375383,178.075234 137.375383,179.880428 L137.375383,196.458761 L19.625,196.458761 L19.625,183.150856 L127.5625,183.150856 C129.367847,183.150856 130.833206,181.685621 130.833206,179.880428 C130.833206,178.075234 129.367847,176.61 127.5625,176.61 L16.3542944,176.61 C10.9443872,176.61 6.54179443,172.207781 6.54179443,166.798333 L6.54179443,81.7637611 C6.54179443,79.9585678 5.07643555,78.4933333 3.27108887,78.4933333 C1.46574219,78.4933333 0.000383300781,79.9585678 0.000383300781,81.7637611 L0.000383300781,166.798333 C0.000383300781,174.696725 5.62953857,181.300053 13.0835889,182.820862 L13.0835889,199.729572 C13.0835889,201.534766 14.5489478,203 16.3542944,203 L140.646089,203 C142.451436,203 143.916794,201.534766 143.916794,199.729572 L143.916794,182.820862 C151.370845,181.303503 157,174.696725 157,166.798333 L157,16.3529055 C157,7.33575391 149.663623,0 140.645706,0 Z" id="Shape"></path>
                <path d="M23.8913043,54.1333333 C25.775218,54.1333333 27.3043478,52.6175736 27.3043478,50.7501322 L27.3043478,37.2165345 C27.3043478,35.3490931 25.775218,33.8333333 23.8913043,33.8333333 C22.0073907,33.8333333 20.4782609,35.3490931 20.4782609,37.2165345 L20.4782609,50.7497357 C20.4782609,52.6175736 22.0073907,54.1333333 23.8913043,54.1333333 Z" id="Shape"></path>
                <path d="M23.8913043,135.333333 C25.775218,135.333333 27.3043478,133.817574 27.3043478,131.950132 L27.3043478,91.3498678 C27.3043478,89.4824264 25.775218,87.9666667 23.8913043,87.9666667 C22.0073907,87.9666667 20.4782609,89.4824264 20.4782609,91.3498678 L20.4782609,131.949736 C20.4782609,133.817574 22.0073907,135.333333 23.8913043,135.333333 Z" id="Shape-Copy"></path>
            </g>
        </g>
    </g>
</svg>