<?xml version="1.0" encoding="UTF-8"?>
<svg width="193px" height="197px" viewBox="0 0 193 197" version="1.1" xmlns="http://www.w3.org/2000/svg" xmlns:xlink="http://www.w3.org/1999/xlink">
    <!-- Generator: Sketch 47.1 (45422) - http://www.bohemiancoding.com/sketch -->
    <title>shake</title>
    <desc>Created with Sketch.</desc>
    <defs></defs>
    <g id="icons---for-export" stroke="none" stroke-width="1" fill="none" fill-rule="evenodd">
        <g id="shake" stroke="#F5A503">
            <g id="Group" transform="translate(16.000000, 14.000000)">
                <path d="M76.5785124,2.68670634 C73.8385177,2.68670634 71.3013202,4.17111159 69.9567841,6.56048909 L66.6052712,12.5155737 L127.982671,47.2300584 L131.335524,41.2740783 C132.332982,39.503091 132.582235,37.4477607 132.035487,35.4882562 C131.492759,33.5327818 130.22014,31.9041899 128.453482,30.9042874 L80.3016712,3.67138421 C79.1469783,3.01806678 77.8940137,2.68670634 76.5785124,2.68670634 L76.5785124,2.68670634 Z M28.7241968,52.8143776 C25.9837554,52.8143776 23.4465578,54.2987828 22.1020218,56.6881603 L21.8098867,57.2075902 C20.8124286,58.9785775 20.5631757,61.0339078 21.1085838,62.9934123 C21.6504185,64.9417222 22.914997,66.5658362 24.6695942,67.5657387 L30.3336198,70.7691882 L38.0877065,56.9895192 L32.4482489,53.7986077 C31.2917692,53.1452902 30.0392513,52.8143776 28.7241968,52.8143776 L28.7241968,52.8143776 Z M16.7337048,67.2845301 C13.9937101,67.2845301 11.4560658,68.7689354 10.1119765,71.1578651 L9.81850133,71.6799817 C7.76238858,75.3325589 9.05466192,79.9850387 12.7014367,82.0479814 L21.260905,86.8894262 L29.0149918,73.1097572 L20.4573102,68.2687602 C19.303064,67.6158906 18.0500994,67.2845301 16.7337048,67.2845301 L16.7337048,67.2845301 Z M10.5796606,85.053958 C7.8396659,85.053958 5.30246833,86.5379155 3.95703891,88.927293 L3.66490384,89.4471707 C2.66833909,91.2186057 2.41908623,93.2730405 2.9631543,95.2312016 C3.50811575,97.1907061 4.78118143,98.8192979 6.54739256,99.8187527 L12.1886369,103.009216 L19.9431704,89.2282041 L14.301926,86.0372925 C13.1445529,85.3844229 11.8929284,85.053958 10.5796606,85.053958 L10.5796606,85.053958 Z M16.8909396,100.844627 L59.2826867,124.819898 L60.8952366,123.693721 C63.7348431,121.710931 67.1748006,120.006664 71.1204108,118.628832 C71.1967948,118.602412 71.2771989,118.58271 71.3607299,118.569724 L71.4174595,118.560768 C71.5965821,118.529871 75.8124396,117.773116 77.0805917,114.896101 C77.9047342,113.029288 77.357986,110.531546 75.4559812,107.473627 L75.3711102,107.337053 L75.2723917,107.209434 C75.0235856,106.888373 69.2380604,99.2473798 74.9856169,91.853564 C76.6642769,89.6938999 79.0294989,88.599067 82.0156196,88.599067 C85.4689778,88.599067 89.503926,90.0539185 93.6836016,92.8068969 C94.8137266,93.5515624 95.9264307,94.3307072 96.9904456,95.1219422 L99.8358591,97.2390668 L126.666277,49.5697319 L65.2884299,14.8552471 L16.8909396,100.844627 Z M12.2221387,109.140728 C11.2246805,110.911715 10.9758744,112.966598 11.5212825,114.925655 C12.0649039,116.881129 13.3370762,118.510169 15.1032873,119.509623 L50.4435907,139.49648 L51.6000704,135.802706 C52.3107537,133.531544 53.4038034,131.394269 54.8488446,129.451332 L56.9710675,126.597155 L15.5740983,103.1843 L12.2221387,109.140728 Z M55.0739763,170 C54.4338699,170 53.8822081,169.540125 53.7624953,168.906511 C53.6727106,168.430068 53.85496,168.070945 53.9719927,167.899443 C54.0885788,167.727494 54.3552525,167.426135 54.829637,167.336131 C77.1971777,163.088896 90.5456064,146.103538 101.270626,132.45507 C102.029999,131.488751 102.769717,130.547509 103.494248,129.634476 C107.483634,124.60944 109.034094,119.735755 108.235859,114.734003 C107.170504,108.062911 101.629318,101.257484 92.2108657,95.053879 C89.4574703,93.2399044 85.3421179,91.3018936 82.0500147,91.3018936 C79.3756834,91.3018936 77.881953,92.5006124 77.0997993,93.5058884 C73.4253298,98.2327004 75.6136627,103.38446 77.4852926,105.683833 C77.5210277,105.728163 77.5531894,105.772046 77.5826709,105.818168 C80.1225486,109.801658 80.7706954,113.242881 79.5065635,116.040638 C77.8337105,119.742919 73.4119291,120.899546 72.0968746,121.16553 L71.87889,121.209861 L71.6689458,121.284641 C58.5291212,125.965779 52.36927,133.827529 53.3604745,144.651374 C53.4279247,145.388874 52.8843033,146.043983 52.1481586,146.111598 C52.104383,146.115628 52.0615008,146.117867 52.0190653,146.117867 C51.3374168,146.117867 50.75404,145.581422 50.6915035,144.896759 C50.6736359,144.703764 50.6593418,144.508083 50.6450478,144.309266 L50.5257816,142.629627 L13.7891262,121.851984 L12.4575442,125.167379 C10.8186396,129.247591 8.9818515,135.349548 9.53887357,141.247317 C9.60811048,141.98437 9.06582916,142.641269 8.33013121,142.711572 C8.28590892,142.715154 8.24213333,142.717841 8.19880443,142.717841 C7.518496,142.717841 6.93467254,142.183186 6.86990253,141.499867 C6.1502854,133.87589 9.05600199,126.066082 10.8516946,122.088861 L11.60258,120.427134 L10.5318648,118.952132 C9.80733409,117.95402 9.27130643,116.841724 8.93941597,115.64614 C8.24123995,113.132278 8.51416737,110.473782 9.70861566,108.159633 L11.0942472,105.47427 L5.23010459,102.158874 C2.84031463,100.807461 1.11832578,98.6034659 0.381287756,95.9530301 C-0.354856892,93.303042 -0.0180528481,90.5236443 1.33095009,88.1271023 L1.62219178,87.6099113 C2.56738721,85.9311676 3.9704396,84.5528873 5.68081452,83.6232869 L8.2175654,82.2445588 L7.05036518,79.5994964 C5.71922983,76.5832207 5.87780468,73.2149866 7.48499427,70.3581222 L7.77846941,69.8360056 C9.36243113,67.0225762 12.2248188,65.0953122 15.4329443,64.6842462 L18.2993522,64.3166152 L18.1590917,61.4230324 C18.0661802,59.4975596 18.521357,57.5841769 19.4754862,55.8888652 L19.768068,55.3685397 C21.5865418,52.136432 25.0184589,50.128119 28.7241968,50.128119 C30.4823675,50.128119 32.2253507,50.5884414 33.7641968,51.4589342 L39.7149972,54.8253773 L67.6228304,5.23997292 C69.4413042,2.0078652 72.8732213,0 76.5785124,0 C78.3366832,0 80.0796664,0.460322352 81.6189592,1.33126299 L129.769877,28.564614 C132.16056,29.9160273 133.882102,32.1195742 134.618694,34.7695623 C135.354838,37.4199981 135.018034,40.1985002 133.669478,42.5936989 L101.870084,99.093342 L103.479507,100.774325 C107.653822,105.135297 110.145011,109.688368 110.882049,114.309056 C111.793743,120.017411 110.014131,125.736065 105.592349,131.306503 C104.929015,132.141173 104.25228,133.002263 103.560805,133.882159 L103.378108,134.114111 C92.9541573,147.378828 78.6810809,165.541411 55.3285894,169.975372 C55.2432717,169.991492 55.1575072,170 55.0739763,170 L55.0739763,170 Z" id="Fill-1" stroke-width="4" fill="#F5A503"></path>
                <path d="M152,31 C150.246203,44.2353075 144.579536,55.9019742 135,66" id="Path-2" stroke-width="5.30000019" stroke-linecap="round"></path>
                <path d="M161,35 C160.562878,39.8614474 159.229544,44.1947807 157,48" id="Path-3" stroke-width="5.30000019" stroke-linecap="round"></path>
            </g>
        </g>
    </g>
</svg>