<?xml version="1.0" encoding="UTF-8"?>
<svg width="250px" height="250px" viewBox="0 0 250 250" version="1.1" xmlns="http://www.w3.org/2000/svg" xmlns:xlink="http://www.w3.org/1999/xlink">
    <!-- Generator: Sketch 47.1 (45422) - http://www.bohemiancoding.com/sketch -->
    <title>star</title>
    <desc>Created with Sketch.</desc>
    <defs></defs>
    <g id="icons---for-export" stroke="none" stroke-width="1" fill="none" fill-rule="evenodd">
        <g id="star" stroke="#C6C6C6" stroke-width="4.4000001" fill="#C6C6C6" fill-rule="nonzero">
            <path d="M222.572777,113.201509 C226.588269,109.437303 228.005742,103.9128 226.273729,98.7772911 C224.537631,93.6417823 220.015607,89.975807 214.460095,89.1978187 L165.065051,82.2941547 C162.961309,81.9994621 161.143512,80.7303195 160.203977,78.8953673 L138.120814,35.842751 C135.641258,31.005864 130.608617,28 125,28 C119.395468,28 114.362827,31.005864 111.883271,35.842751 L89.796023,78.8953673 C88.8564878,80.7303195 87.0346064,81.9994621 84.9308644,82.2941547 L35.5358204,89.2017479 C29.9843926,89.975807 25.4623686,93.6417823 23.7262709,98.7772911 C21.9942581,103.9128 23.4117308,109.437303 27.4272227,113.201509 L63.1663263,146.710016 C64.6900074,148.140257 65.3885314,150.199176 65.0290571,152.210943 L56.5936646,199.530708 C55.6459595,204.846961 57.8722495,210.116064 62.4106132,213.290885 C66.944892,216.469635 72.8476242,216.882205 77.8189911,214.363566 L121.993487,192.021942 C123.876643,191.071067 126.123357,191.071067 128.006513,192.021942 L172.185094,214.363566 C174.34194,215.455893 176.678523,215.994198 179.002852,215.994198 C182.021619,215.994198 185.028132,215.086545 187.593472,213.290885 C192.131835,210.116064 194.358125,204.846961 193.41042,199.530708 L184.970943,152.214873 C184.611469,150.199176 185.309993,148.144186 186.833674,146.713945 L222.572777,113.201509 Z M177.018618,153.491523 L185.468966,200.729776 C185.894553,203.106988 184.932891,205.378284 182.894986,206.798334 C180.852989,208.214462 178.311746,208.387065 176.081509,207.272992 L131.824602,184.964078 C129.692577,183.893156 127.343667,183.351811 125.002941,183.351811 C122.662215,183.351811 120.317397,183.893156 118.18128,184.968001 L73.9325571,207.272992 C71.6941357,208.387065 69.152893,208.214462 67.1149883,206.798334 C65.0770835,205.378284 64.1195138,203.11091 64.5410082,200.729776 L72.9913561,153.491523 C73.8056996,148.933239 72.230211,144.280809 68.7764126,141.056274 L32.9698534,107.598787 C31.1652028,105.911987 30.5513761,103.534775 31.3329821,101.239943 C32.1104959,98.9411868 34.0624649,97.3642247 36.5546015,97.0150963 L86.0331281,90.1227519 C90.8087,89.4598002 94.9377078,86.5883169 97.0697327,82.4380037 L119.19614,39.4559792 C120.309213,37.2905983 122.482159,36 124.998849,36 C127.519631,36 129.688485,37.2905983 130.80565,39.4559792 L152.932057,82.4380037 C155.064082,86.5883169 159.188998,89.4598002 163.96457,90.1227519 L213.447188,97.0150963 C215.939325,97.3642247 217.891294,98.9411868 218.668808,101.239943 C219.446322,103.534775 218.836587,105.911987 217.031937,107.598787 L181.229469,141.052352 C177.775671,144.280809 176.200182,148.929317 177.018618,153.491523 Z" id="Shape"></path>
        </g>
    </g>
</svg>