<?xml version="1.0" encoding="UTF-8"?>
<svg width="250px" height="198px" viewBox="0 0 250 198" version="1.1" xmlns="http://www.w3.org/2000/svg" xmlns:xlink="http://www.w3.org/1999/xlink">
    <!-- Generator: Sketch 46.2 (44496) - http://www.bohemiancoding.com/sketch -->
    <title>wok</title>
    <desc>Created with Sketch.</desc>
    <defs></defs>
    <g id="icons---for-export" stroke="none" stroke-width="1" fill="none" fill-rule="evenodd">
        <g id="wok" fill-rule="nonzero" fill="#FFFFFF">
            <g id="Group-2" transform="translate(13.000000, 14.000000)">
                <path d="M215.397807,21.7313912 L215.273643,21.60664 C210.20915,16.7382775 202.135866,16.7973702 197.148757,21.7909216 C196.908299,22.0307942 196.676584,22.2833607 196.44006,22.5608775 L151.574881,73.1455364 C141.782974,68.0548103 130.670295,70.6745864 122.753091,78.6021995 C114.599799,86.7653079 109.025098,96.2188257 107,105 L164.753754,105 C167.273759,98.7668151 167.216486,91.8595359 163.921331,85.5068524 L214.445154,40.5876509 C214.722337,40.3508424 214.9746,40.1197243 215.214184,39.8772254 C220.200856,34.8841116 220.260314,26.8024198 215.397807,21.7313912 Z" id="Shape" fill-opacity="0.2"></path>
                <path d="M164.286458,113 L106.024364,113 C104.188292,113 102.452779,112.160444 101.31003,110.719753 C100.167282,109.278177 99.7412319,107.393821 100.154491,105.599703 C102.477477,95.5086698 108.692689,84.9996284 117.656495,76.0100145 C124.038421,69.6093988 132.098967,66.0844156 140.353572,66.0844156 C143.429422,66.0844156 146.439116,66.5696592 149.344282,67.5312998 L191.7111,19.6810574 C192.048941,19.2864928 192.37796,18.9290845 192.718447,18.5898121 C196.308557,14.9891893 201.100956,13 206.202528,13 C211.159437,13 215.855247,14.8923175 219.423745,18.3275063 C219.456823,18.3593545 219.489019,18.3907605 219.520775,18.4234934 L219.646032,18.5495594 C219.672053,18.5756573 219.697193,18.6013129 219.722332,18.6274107 C226.863739,26.0887505 226.742452,38.1079302 219.451089,45.4210871 C219.132214,45.7435507 218.773203,46.0779575 218.374057,46.4207686 L170.660445,88.9147528 C172.817157,95.4843413 172.566643,102.544481 169.870092,109.224654 C168.94963,111.507113 166.740434,113 164.286458,113 Z M114.49023,100.916681 L159.794411,100.916681 C160.343953,97.8251884 160.175915,94.0511695 158.100355,90.0435967 C156.829263,87.587742 157.384098,84.578966 159.446867,82.7419406 L210.415393,37.3493223 C210.445384,37.3227821 210.476257,37.2953572 210.506248,37.2697017 C210.665907,37.1330196 210.797779,37.0118192 210.909805,36.8981386 C213.60812,34.1919212 213.663251,29.7840334 211.061524,27.0300435 L211.036385,27.0048303 C209.727803,25.7649598 208.013019,25.0837609 206.200763,25.0837609 C204.3175,25.0837609 202.550231,25.8153862 201.225772,27.1446088 C201.096986,27.2733289 200.972171,27.4091263 200.835446,27.5701369 C200.809425,27.6015429 200.782962,27.6325065 200.756058,27.662143 L155.495541,78.7786015 C153.66388,80.8478538 150.663889,81.4043137 148.215205,80.1290562 C145.71536,78.8272586 143.069529,78.1668495 140.352249,78.1668495 C135.316393,78.1668495 130.280978,80.4347111 126.174845,84.5533104 C121.141194,89.6039138 117.099013,95.3020984 114.49023,100.916681 Z" id="Shape"></path>
                <path d="M31.267546,173 C29.0936075,173 27.0004749,171.796819 25.9591219,169.714356 L3.15188335,124.093738 C-0.347097547,119.432719 -0.988765636,113.338781 1.50752742,108.009909 C4.11112719,102.452171 9.53033351,99 15.6498573,99 L74.0664165,99 C77.3429641,99 80,101.66618 80,104.954003 C80,108.241826 77.3429641,110.908006 74.0664165,110.908006 L15.6498573,110.908006 C13.4954687,110.908006 12.553168,112.423753 12.248191,113.075476 C11.9427796,113.727635 11.381483,115.422551 12.7556171,117.086951 C13.0423476,117.433956 13.2886752,117.813219 13.4902554,118.216024 L36.5668468,164.37415 C38.0365578,167.313661 36.8527085,170.891381 33.9241475,172.366586 C33.0696037,172.796854 32.1616238,173 31.267546,173 Z" id="Shape"></path>
                <path d="M184.021856,151 C182.686832,151 181.344785,150.558291 180.231826,149.649919 C177.668859,147.55957 177.290119,143.792565 179.384818,141.236429 L199.089379,117.193696 C200.50296,115.491211 199.935948,113.789601 199.626988,113.135136 C199.318466,112.480233 198.365692,110.958109 196.190681,110.958109 L105.994006,110.958109 C102.684093,110.958109 100,108.280711 100,104.979054 C100,101.677398 102.684093,99 105.994006,99 L196.190681,99 C202.372522,99 207.846913,102.467134 210.476587,108.048256 C213.1067,113.628502 212.289973,120.044888 208.345901,124.793373 L188.666356,148.805024 C187.481861,150.250977 185.758881,151 184.021856,151 Z" id="Shape"></path>
                <path d="M91.0988186,63 C89.5536015,63 88.0101519,62.4088003 86.8312446,61.2268439 L75.4584118,49.8203229 C71.9384807,46.2899652 70,41.5834125 70,36.566635 C70,31.5498575 71.9384807,26.8428617 75.4584118,23.3129471 C82.7209761,16.0279835 94.5263989,16.0040519 101.819894,23.2446977 L106.511221,27.679139 C106.554524,27.7199114 106.597385,27.7620133 106.639805,27.803672 C107.880132,29.0481165 109.542002,29.73327 111.320085,29.73327 C113.097283,29.73327 114.759595,29.0481165 115.999923,27.803672 C118.579998,25.2159544 118.579998,21.004875 115.999923,18.4158278 L107.940668,10.3331434 C105.583737,7.96923077 105.583737,4.13662551 107.940668,1.77226971 C110.298041,-0.590756569 114.118443,-0.590756569 116.476258,1.77226971 L124.535512,9.85539728 C131.821938,17.1642925 131.821054,29.0556505 124.535512,36.3636594 C117.272064,43.6477366 105.467525,43.6707819 98.1744721,36.4327952 L93.4827036,31.9979107 C93.4394004,31.9571383 93.3965391,31.9150364 93.3541196,31.8733777 C92.1137924,30.6289332 90.4519219,29.9442229 88.6742815,29.9442229 C86.8966412,29.9442229 85.2347707,30.6289332 83.9944435,31.8729345 C82.7536744,33.1173789 82.0705444,34.7846154 82.0705444,36.5670782 C82.0705444,38.3504274 82.7536744,40.0167775 83.9940016,41.2607787 L95.3668344,52.6672998 C97.7237654,55.0312124 97.7237654,58.8638177 95.3668344,61.2281735 C94.187927,62.4092434 92.6435937,63 91.0988186,63 Z" id="Shape"></path>
                <path d="M197.000124,176 L16.9998764,176 C13.6867217,176 11,173.089325 11,169.5 C11,165.910675 13.6867217,163 16.9998764,163 L197.000124,163 C200.313278,163 203,165.910675 203,169.5 C203,173.089325 200.313278,176 197.000124,176 Z" id="Shape"></path>
            </g>
        </g>
    </g>
</svg>